<mxfile host="app.diagrams.net" modified="2023-06-17T16:15:13.642Z" agent="Mozilla/5.0 (Windows NT 10.0; Win64; x64) AppleWebKit/537.36 (KHTML, like Gecko) Chrome/114.0.0.0 Safari/537.36" version="21.3.2" etag="cIMbkYtUQweDYpHDBpcI" type="github">
  <diagram name="PÃ¡gina-1" id="nVIHduTY_yrl9fIVmin9">
    <mxGraphModel>
      <root>
        <mxCell id="0" />
        <mxCell id="1" parent="0" />
      </root>
    </mxGraphModel>
  </diagram>
</mxfile>
